# Blender 4.4.3
# www.blender.org
mtllib t-34-base.mtl
o Cube
v 0.684034 0.435042 -1.131462
v 1.000000 0.019667 -2.065570
v 0.684034 0.386005 -0.224206
v 1.000000 0.021036 -0.207070
v -0.684034 0.435042 -1.131462
v -1.000000 0.019667 -2.065570
v -0.684034 0.386005 -0.224206
v -1.000000 0.021036 -0.207070
v -1.000000 0.020973 -0.299552
v 0.684034 0.437751 -0.287525
v -0.684034 0.437751 -0.287525
v 1.000000 0.020973 -0.299552
v 0.684034 0.386092 0.971507
v 1.000000 0.021162 1.602794
v -0.684034 0.386092 0.971507
v -1.000000 0.021162 1.602794
v 1.000000 0.051009 -2.065683
v -1.000000 0.047007 -0.207073
v 1.000000 0.047007 -0.207073
v -1.000000 0.051009 -2.065683
v 1.000000 0.052510 -0.299561
v -1.000000 0.052510 -0.299561
v -1.000000 0.047134 1.602486
v 1.000000 0.047134 1.602486
v 1.000000 0.016517 1.925045
v -1.000000 0.016517 1.925045
v -1.000000 0.040487 1.935046
v 1.000000 0.040487 1.935046
v 1.000000 -0.038692 2.057364
v -1.000000 -0.038692 2.057364
v -1.000000 -0.014721 2.067365
v 1.000000 -0.014721 2.067365
v 1.000000 -0.059377 2.086678
v -1.000000 -0.059377 2.086678
v -1.000000 -0.043613 2.107320
v 1.000000 -0.043613 2.107320
v 1.000000 -0.115490 2.129531
v -1.000000 -0.115490 2.129531
v -1.000000 -0.099726 2.150173
v 1.000000 -0.099726 2.150173
v 1.000000 -0.167209 2.147610
v -1.000000 -0.167209 2.147610
v -1.000000 -0.166415 2.173571
v 1.000000 -0.166415 2.173571
v 1.000000 -0.227588 2.149456
v -1.000000 -0.227588 2.149456
v -1.000000 -0.226795 2.175417
v 1.000000 -0.226795 2.175417
v 1.000000 0.017106 -2.123141
v -1.000000 0.017106 -2.123141
v 1.000000 0.046656 -2.141555
v -1.000000 0.046656 -2.141555
v 1.000000 -0.098760 -2.351678
v -1.000000 -0.098760 -2.351678
v 1.000000 -0.075653 -2.372853
v -1.000000 -0.075653 -2.372853
v 1.000000 -0.800078 -1.608268
v 1.000000 -0.802007 -0.222057
v -1.000000 -0.800078 -1.608268
v -1.000000 -0.802007 -0.222057
v -1.000000 -0.802070 -0.314539
v 1.000000 -0.802070 -0.314539
v 1.000000 -0.795010 1.427776
v -1.000000 -0.795010 1.427776
v 1.000000 -0.701170 1.617186
v -1.000000 -0.701170 1.617186
v 1.000000 -0.621248 1.790731
v -1.000000 -0.621248 1.790731
v 1.000000 -0.561771 1.913950
v -1.000000 -0.561771 1.913950
v 1.000000 -0.523979 1.984287
v -1.000000 -0.523979 1.984287
v 1.000000 -0.479503 2.043592
v -1.000000 -0.479503 2.043592
v 1.000000 -0.400171 2.116439
v -1.000000 -0.400171 2.116439
v 1.000000 -0.528713 -2.325827
v -1.000000 -0.528713 -2.325827
v 1.000000 -0.391266 -2.389550
v -1.000000 -0.391266 -2.389550
v -1.000000 0.040487 1.935046
v 1.000000 0.040487 1.935046
v -1.000000 -0.014721 2.067365
v 1.000000 -0.014721 2.067365
v -1.000000 -0.043613 2.107320
v 1.000000 -0.043613 2.107320
v -1.000000 -0.099726 2.150173
v 1.000000 -0.099726 2.150173
v -1.000000 -0.166415 2.173571
v 1.000000 -0.166415 2.173571
v -1.000000 -0.226795 2.175417
v 1.000000 -0.226795 2.175417
vn 0.3766 0.9169 -0.1323
vn 1.0000 -0.0000 -0.0000
vn 0.4417 0.8623 0.2476
vn -0.3766 0.9169 -0.1323
vn -1.0000 -0.0000 -0.0000
vn -0.4417 0.8623 0.2476
vn 0.3937 0.8856 0.2465
vn -0.3937 0.8856 0.2465
vn 0.3375 0.9253 0.1729
vn -0.3375 0.9253 0.1729
vn 0.7446 0.6561 -0.1231
vn -0.9347 0.3504 0.0599
vn 0.9347 0.3504 0.0599
vn -0.7446 0.6561 -0.1231
vn 0.9356 0.3472 0.0637
vn -0.9356 0.3472 0.0637
vn -0.7590 0.6394 0.1224
vn 0.7590 0.6394 0.1224
vn -0.8696 0.4937 0.0099
vn 0.8696 0.4937 0.0099
vn 0.8778 -0.3644 0.3108
vn -0.8778 -0.3644 0.3108
vn -0.7071 -0.7068 0.0216
vn 0.7071 -0.7068 0.0216
vn 0.6622 0.7218 -0.2012
vn -0.6622 0.7218 -0.2012
vn 0.8154 -0.1747 -0.5519
vn -0.8154 -0.1747 -0.5519
vn 0.5651 0.1406 -0.8130
vn -0.5651 0.1406 -0.8130
vn 0.6689 -0.7311 -0.1342
vn 0.7067 -0.7075 0.0017
vn -0.6689 -0.7311 -0.1342
vn -0.7067 -0.7075 0.0017
vn -0.7069 -0.7074 -0.0003
vn 0.7069 -0.7074 -0.0003
vn 0.6596 -0.7314 0.1729
vn -0.6596 -0.7314 0.1729
vn 0.7039 -0.6409 0.3062
vn -0.7039 -0.6409 0.3062
vn 0.7051 -0.6414 0.3025
vn -0.7051 -0.6414 0.3025
vn 0.7023 -0.6343 0.3233
vn -0.7023 -0.6343 0.3233
vn 0.6906 -0.6096 0.3892
vn -0.6906 -0.6096 0.3892
vn 0.6870 -0.5387 0.4877
vn -0.6870 -0.5387 0.4877
vn 0.6504 -0.3412 0.6786
vn -0.6504 -0.3412 0.6786
vn 0.6311 -0.5680 -0.5282
vn -0.6311 -0.5680 -0.5282
vn 0.6496 -0.1156 -0.7514
vn -0.6496 -0.1156 -0.7514
vn -0.0000 0.9229 0.3851
vn -0.0000 0.8724 0.4888
vn -0.0000 0.7163 0.6978
vn -0.0000 0.4749 0.8801
vn -0.0000 0.1830 0.9831
vn -0.0000 0.0306 0.9995
vt 0.594690 0.331589
vt 0.405427 0.331589
vt 0.405427 0.322829
vt 0.594690 0.322829
vt 0.572066 0.706028
vt 0.570108 0.759323
vt 0.707388 0.758949
vt 0.859353 0.705820
vt 0.725289 0.113526
vt 0.287483 0.113526
vt 0.287483 0.106091
vt 0.725289 0.106091
vt 0.559808 0.752165
vt 0.557021 0.705267
vt 0.433896 0.302432
vt 0.459314 0.227278
vt 0.569368 0.227278
vt 0.594786 0.302432
vt 0.459314 0.159388
vt 0.569368 0.159388
vt 0.722606 0.227797
vt 0.647608 0.296656
vt 0.354395 0.300681
vt 0.284799 0.227797
vt 0.405427 0.157411
vt 0.594690 0.157411
vt 0.364952 0.750047
vt 0.280558 0.704390
vt 0.530990 0.705486
vt 0.530989 0.701893
vt 0.280607 0.701910
vt 0.280650 0.705503
vt 0.281453 0.704390
vt 0.364952 0.749692
vt 0.663572 0.240202
vt 0.331548 0.240202
vt 0.334232 0.226139
vt 0.666255 0.226139
vt 0.543785 0.706247
vt 0.543783 0.701884
vt 0.853041 0.700727
vt 0.853057 0.705063
vt 0.594786 0.308535
vt 0.433896 0.308535
vt 0.370808 0.701559
vt 0.370765 0.697966
vt 0.326184 0.697323
vt 0.324800 0.700639
vt 0.186959 0.666286
vt 0.185575 0.669602
vt 0.180048 0.665605
vt 0.182903 0.663424
vt 0.234642 0.704584
vt 0.236026 0.701267
vt 0.174119 0.657842
vt 0.176975 0.655661
vt 0.174474 0.648506
vt 0.170882 0.648616
vt 0.170627 0.640263
vt 0.174218 0.640153
vt 0.361900 0.381573
vt 0.359656 0.381682
vt 0.861006 0.700372
vt 0.863553 0.704460
vt 0.895552 0.687540
vt 0.892622 0.684343
vt 0.751088 0.399395
vt 0.752919 0.402592
vt 0.594786 0.327142
vt 0.433896 0.327142
vt 0.287483 0.049420
vt 0.725289 0.049420
vt 0.725289 0.050407
vt 0.287483 0.050407
vt 0.609521 0.552357
vt 0.596727 0.552366
vt 0.788500 0.552633
vt 0.725289 0.063641
vt 0.287483 0.063641
vt 0.725289 0.074912
vt 0.287483 0.074912
vt 0.725289 0.083301
vt 0.287483 0.083301
vt 0.725289 0.088630
vt 0.287483 0.088630
vt 0.725289 0.094903
vt 0.287483 0.094903
vt 0.887769 0.590174
vt 0.896585 0.609189
vt 0.891346 0.649655
vt 0.607448 0.666219
vt 0.851765 0.666039
vt 0.859729 0.665684
vt 0.368484 0.553334
vt 0.342281 0.566316
vt 0.318272 0.577372
vt 0.301225 0.585601
vt 0.291495 0.590829
vt 0.283290 0.596982
vt 0.273212 0.607957
vt 0.268645 0.631833
vt 0.268900 0.640186
vt 0.271401 0.647341
vt 0.277330 0.655103
vt 0.281385 0.657965
vt 0.299691 0.665603
vt 0.344272 0.666245
vt 0.594654 0.666228
vt 0.725289 0.247776
vt 0.287483 0.247776
vt 0.287483 0.190403
vt 0.725289 0.190403
vt 0.725289 0.186328
vt 0.287483 0.186328
vt 0.287483 0.178415
vt 0.725289 0.178415
vt 0.287483 0.169010
vt 0.725289 0.169010
vt 0.287483 0.160494
vt 0.725289 0.160494
s 1
usemtl Material
f 10/1/7 11/2/8 7/3/6 3/4/3
f 22/5/16 11/6/8 5/7/4 20/8/14
f 45/9/21 46/10/22 76/11/50 75/12/49
f 21/5/15 10/6/7 3/13/3 19/14/13
f 20/15/14 5/16/4 1/17/1 17/18/11
f 17/8/11 1/7/1 10/6/7 21/5/15
f 18/14/12 7/13/6 11/6/8 22/5/16
f 1/17/1 5/16/4 11/19/8 10/20/7
f 24/21/18 13/22/9 15/23/10 23/24/17
f 3/4/3 7/3/6 15/25/10 13/26/9
f 19/14/13 3/13/3 13/27/9 24/28/18
f 18/29/12 8/30/5 16/31/5 23/32/17
f 7/13/6 18/14/12 23/33/17 15/34/10
f 4/30/2 19/29/13 24/32/18 14/31/2
f 24/35/18 23/36/17 27/37/19 28/38/20
f 8/30/5 18/29/12 22/39/16 9/40/5
f 2/41/2 17/42/11 21/39/15 12/40/2
f 20/15/14 17/18/11 51/43/25 52/44/26
f 12/40/2 21/39/15 19/29/13 4/30/2
f 9/40/5 22/39/16 20/42/14 6/41/5
f 23/45/17 16/46/5 26/47/5 27/48/19
f 14/46/2 24/45/18 28/48/20 25/47/2
f 29/49/2 32/50/2 36/51/2 33/52/2
f 27/53/19 26/54/5 30/49/5 31/50/5
f 25/54/2 28/53/20 32/50/2 29/49/2
f 31/50/5 30/49/5 34/52/5 35/51/5
f 39/55/5 38/56/5 42/57/5 43/58/5
f 35/51/5 34/52/5 38/56/5 39/55/5
f 33/52/2 36/51/2 40/55/2 37/56/2
f 41/57/2 44/58/2 48/59/24 45/60/21
f 37/56/2 40/55/2 44/58/2 41/57/2
f 45/61/21 48/62/24 47/62/23 46/61/22
f 43/58/5 42/57/5 46/60/22 47/59/23
f 50/63/5 52/64/26 56/65/30 54/66/28
f 17/42/11 2/41/2 49/63/2 51/64/25
f 6/41/5 20/42/14 52/64/26 50/63/5
f 54/67/28 56/68/30 55/68/29 53/67/27
f 52/44/26 51/43/25 55/69/29 56/70/30
f 51/64/25 49/63/2 53/66/27 55/65/29
f 60/71/34 58/72/32 63/73/37 64/74/38
f 61/75/35 62/75/36 58/76/32 60/76/34
f 59/77/33 57/77/31 62/75/36 61/75/35
f 64/74/38 63/73/37 65/78/39 66/79/40
f 66/79/40 65/78/39 67/80/41 68/81/42
f 68/81/42 67/80/41 69/82/43 70/83/44
f 70/83/44 69/82/43 71/84/45 72/85/46
f 72/85/46 71/84/45 73/86/47 74/87/48
f 74/87/48 73/86/47 75/12/49 76/11/50
f 57/77/31 59/77/33 78/88/52 77/88/51
f 77/88/51 78/88/52 80/89/54 79/89/53
f 54/90/28 53/90/27 79/89/53 80/89/54
f 9/91/5 6/92/5 50/93/5 54/90/28 80/89/54 78/88/52 59/77/33 61/75/35 60/76/34 64/94/38 66/95/40 68/96/42 70/97/44 72/98/46 74/99/48 76/100/50 46/101/22 42/102/5 38/103/5 34/104/5 30/105/5 26/106/5 16/107/5 8/108/5
f 12/91/2 4/108/2 14/107/2 25/106/2 29/105/2 33/104/2 37/103/2 41/102/2 45/101/21 75/100/49 73/99/47 71/98/45 69/97/43 67/96/41 65/95/39 63/94/37 58/76/32 62/75/36 57/77/31 77/88/51 79/89/53 53/90/27 49/93/2 2/92/2
f 82/109/55 81/110/55 83/111/56 84/112/56
f 86/113/57 85/114/57 87/115/58 88/116/58
f 84/112/56 83/111/56 85/114/57 86/113/57
f 88/116/58 87/115/58 89/117/59 90/118/59
f 90/118/59 89/117/59 91/119/60 92/120/60
o Cylinder
v -0.484711 0.271605 1.445470
v -0.412125 0.241706 1.462089
v -0.416482 0.246064 1.161294
v -0.386584 0.173478 1.161294
v -0.386584 0.168470 1.500441
v -0.416482 0.064564 1.545824
v -0.412125 0.068921 1.161294
v -0.484711 0.039023 1.161294
v -0.489718 0.039023 1.545824
v -0.562304 0.068921 1.545824
v -0.557946 0.064564 1.161294
v -0.587845 0.168470 1.161294
v -0.587845 0.173478 1.500441
v -0.557946 0.246064 1.462089
v -0.562304 0.241706 1.161294
v -0.489718 0.271605 1.161294
vn 0.9348 0.3551 -0.0012
vn 0.3552 0.9348 0.0013
vn 0.9665 -0.2565 0.0025
vn 0.3554 -0.9347 -0.0010
vn -0.3554 -0.9347 0.0010
vn -0.9663 -0.2575 -0.0025
vn -0.9346 0.3556 0.0012
vn -0.3555 0.9347 -0.0013
vn 0.0112 0.4121 0.9111
vn -0.0000 -0.0000 -1.0000
vt 0.423875 0.262144
vt 0.415298 0.282967
vt 0.416548 0.281717
vt 0.423875 0.260708
vt 0.394289 0.290294
vt 0.395725 0.290294
vt 0.416548 0.232151
vt 0.415298 0.230900
vt 0.395725 0.223574
vt 0.394289 0.223574
vt 0.374716 0.230900
vt 0.373466 0.232151
vt 0.366139 0.260708
vt 0.366139 0.262144
vt 0.373466 0.281717
vt 0.374716 0.282967
s 0
usemtl Material
f 96/121/61 95/122/61 94/123/61 97/124/61
f 95/122/62 108/125/62 93/126/62 94/123/62
f 99/127/63 96/121/63 97/124/63 98/128/63
f 100/129/64 99/127/64 98/128/64 101/130/64
f 103/131/65 100/129/65 101/130/65 102/132/65
f 104/133/66 103/131/66 102/132/66 105/134/66
f 107/135/67 104/133/67 105/134/67 106/136/67
f 108/125/68 107/135/68 106/136/68 93/126/68
f 102/132/69 101/130/69 98/128/69 97/124/69 94/123/69 93/126/69 106/136/69 105/134/69
f 100/129/70 103/131/70 104/133/70 107/135/70 108/125/70 95/122/70 96/121/70 99/127/70
o Cylinder.002
v -0.484412 0.120621 1.512776
v -0.488629 0.120684 1.772766
v -0.478843 0.118810 1.772766
v -0.474440 0.115196 1.512776
v -0.472418 0.111649 1.772766
v -0.470632 0.105675 1.512776
v -0.472334 0.096044 1.512776
v -0.470473 0.100166 1.772766
v -0.485028 0.086647 1.512776
v -0.479689 0.088808 1.772766
v -0.499223 0.092096 1.512776
v -0.494358 0.088302 1.772766
v -0.504634 0.105744 1.512776
v -0.504296 0.101177 1.772766
v -0.495725 0.118810 1.512776
v -0.499112 0.116592 1.772766
vn 0.4779 0.8784 -0.0041
vn 0.9847 -0.1741 -0.0043
vn 0.5950 -0.8037 -0.0055
vn 0.9645 0.2641 0.0006
vn -0.3584 -0.9336 -0.0069
vn -0.9296 -0.3686 -0.0053
vn -0.8262 0.5634 -0.0060
vn -0.1581 0.9874 -0.0028
vn 0.1881 0.9822 0.0028
vn 0.7443 0.6679 0.0033
vn 0.7765 -0.6301 0.0044
vn 0.0345 -0.9994 0.0076
vn -0.7916 -0.6110 0.0059
vn -0.9478 0.3187 0.0068
vn -0.0000 -0.0000 1.0000
vn -0.3636 0.9315 0.0032
vn -0.0000 -0.0000 -1.0000
vt 0.397300 0.246266
vt 0.398501 0.245281
vt 0.395792 0.246868
vt 0.399712 0.242689
vt 0.399462 0.241200
vt 0.399101 0.240023
vt 0.397064 0.238054
vt 0.395569 0.237750
vt 0.399214 0.244388
vt 0.393097 0.238046
vt 0.391659 0.238901
vt 0.390459 0.241474
vt 0.390484 0.242649
vt 0.391848 0.245572
vt 0.392674 0.246266
vt 0.394605 0.246957
s 0
usemtl Material
f 111/137/71 112/138/71 109/139/71
f 114/140/72 116/141/72 115/142/72
f 118/143/73 117/144/73 115/142/73
f 114/140/74 112/138/74 113/145/74 116/141/74
f 120/146/75 119/147/75 117/144/75
f 119/147/76 122/148/76 121/149/76
f 124/150/77 123/151/77 121/149/77
f 110/152/78 109/139/78 123/151/78
f 110/152/79 111/137/79 109/139/79
f 111/137/80 113/145/80 112/138/80
f 116/141/81 118/143/81 115/142/81
f 118/143/82 120/146/82 117/144/82
f 120/146/83 122/148/83 119/147/83
f 122/148/84 124/150/84 121/149/84
f 113/145/85 111/137/85 110/152/85 124/150/85 122/148/85 120/146/85 118/143/85 116/141/85
f 124/150/86 110/152/86 123/151/86
f 121/149/87 123/151/87 109/139/87 112/138/87 114/140/87 115/142/87 117/144/87 119/147/87
