# Blender 4.4.3
# www.blender.org
mtllib t-34-head.mtl
o Cylinder.001
v 0.009410 0.701731 1.130676
v 0.012176 0.699761 2.549337
v 0.045560 0.677473 1.130676
v 0.040361 0.683782 2.549337
v 0.056347 0.635835 1.130676
v 0.056178 0.649258 2.548850
v 0.027923 0.596317 1.130676
v 0.045546 0.613166 2.549337
v 0.019997 0.593241 2.549337
v -0.004531 0.590103 1.130676
v -0.017951 0.591840 2.548850
v -0.039295 0.603673 1.130676
v -0.055876 0.643926 1.130676
v -0.053460 0.625046 2.547905
v -0.041711 0.684540 1.130676
v -0.049029 0.673285 2.548850
v -0.020137 0.697388 2.549337
v 0.001904 0.673464 2.302530
v 0.021230 0.663824 2.302526
v 0.028080 0.643341 2.302529
v 0.014420 0.620108 2.302502
v -0.015245 0.621065 2.302522
v -0.028063 0.641759 2.302529
v -0.020893 0.664929 2.302524
vn 0.1170 0.8664 -0.4854
vn 0.1295 0.3086 0.9423
vn 0.7064 0.5010 -0.5000
vn 0.3514 0.1851 0.9177
vn 0.8579 -0.1602 -0.4883
vn 0.3931 0.0276 0.9191
vn 0.4344 -0.7469 -0.5033
vn 0.2883 -0.2070 0.9349
vn 0.4259 -0.2831 0.8593
vn -0.1117 -0.8529 -0.5100
vn 0.1261 -0.3535 0.9269
vn -0.6088 -0.6209 -0.4938
vn -0.8654 -0.0234 -0.5005
vn -0.4196 -0.1630 0.8929
vn -0.6150 0.6211 -0.4859
vn -0.3713 0.1706 0.9127
vn -0.1476 0.3234 0.9347
vn -0.0592 -0.8263 0.5601
vn -0.6335 -0.5376 0.5565
vn -0.8264 0.0837 0.5569
vn -0.4034 0.7357 0.5441
vn 0.4169 0.7245 0.5488
vn 0.8237 0.1032 0.5575
vn 0.6065 -0.5708 0.5536
vt 0.398365 0.742547
vt 0.681043 0.741314
vt 0.681043 0.745480
vt 0.398365 0.735806
vt 0.681043 0.733335
vt 0.398365 0.728807
vt 0.681043 0.725751
vt 0.398365 0.724900
vt 0.681043 0.727350
vt 0.681043 0.724161
vt 0.398365 0.731291
vt 0.681043 0.734794
vt 0.398365 0.740388
vt 0.681043 0.742317
vt 0.447593 0.738582
vt 0.398365 0.745191
vt 0.447593 0.730580
vt 0.447593 0.738696
vt 0.398365 0.724941
vt 0.447593 0.730568
vt 0.447593 0.734382
vt 0.447593 0.740413
vt 0.398365 0.745654
vt 0.447593 0.734689
vt 0.507343 0.378835
vt 0.506447 0.381509
vt 0.503922 0.382767
vt 0.501023 0.381587
vt 0.500010 0.378624
vt 0.501732 0.376011
vt 0.505447 0.376003
s 1
usemtl Material
f 4/1/4 3/2/3 1/3/1
f 6/4/6 5/5/5 3/2/3
f 8/6/8 7/7/7 5/5/5
f 11/8/11 12/9/12 10/10/10
f 14/11/14 13/12/13 12/9/12
f 16/13/16 15/14/15 13/12/13
f 4/1/4 19/15/19 6/4/6
f 17/16/17 1/3/1 15/14/15
f 11/8/11 22/17/22 14/11/14
f 16/13/16 24/18/24 17/16/17
f 9/19/9 21/20/21 11/8/11
f 14/11/14 23/21/23 16/13/16
f 8/6/8 21/20/21 9/19/9
f 17/16/17 18/22/18 2/23/2
f 6/4/6 20/24/20 8/6/8
f 2/23/2 4/1/4 1/3/1
f 4/1/4 6/4/6 3/2/3
f 6/4/6 8/6/8 5/5/5
f 8/6/8 9/19/9 7/7/7
f 11/8/11 14/11/14 12/9/12
f 10/10/10 7/7/7 9/19/9 11/8/11
f 14/11/14 16/13/16 13/12/13
f 16/13/16 17/16/17 15/14/15
f 17/16/17 2/23/2 1/3/1
f 7/7/7 10/10/10 12/9/12 13/12/13 15/14/15 1/3/1 3/2/3 5/5/5
f 19/15/19 4/1/4 2/23/2 18/22/18
f 20/25/20 19/26/19 18/27/18 24/28/24 23/29/23 22/30/22 21/31/21
f 8/6/8 20/24/20 21/20/21
f 6/4/6 19/15/19 20/24/20
f 11/8/11 21/20/21 22/17/22
f 16/13/16 23/21/23 24/18/24
f 14/11/14 22/17/22 23/21/23
f 17/16/17 24/18/24 18/22/18
o Cube.001
v -0.557582 0.406740 0.821884
v -0.419256 0.373055 0.759090
v -0.421116 0.773610 0.979638
v -0.296571 0.833858 0.952014
v -0.322363 0.854711 0.890942
v -0.449142 0.820596 0.895661
v -0.553115 0.405257 -0.087312
v -0.409564 0.372220 -0.015189
v -0.322499 0.854711 -0.257752
v -0.445129 0.820443 -0.257752
v 0.569355 0.404541 0.875615
v 0.409202 0.373055 0.759090
v 0.313193 0.856545 0.890942
v 0.287950 0.834865 0.951472
v 0.438984 0.819951 0.932338
v 0.557243 0.405771 -0.092028
v 0.420295 0.372220 -0.015189
v 0.437156 0.820219 -0.257752
v 0.313057 0.856545 -0.257752
v -0.538581 0.621638 0.952444
v -0.461167 0.625909 1.015694
v -0.451470 0.472207 -0.252848
v -0.537366 0.539255 -0.222233
v -0.421879 0.505988 -0.291873
v 0.449217 0.473062 -0.252926
v 0.418378 0.506825 -0.291873
v 0.533971 0.540291 -0.222451
v 0.455958 0.495565 1.000522
v 0.546532 0.546585 0.971572
v -0.322499 0.854711 -0.296346
v -0.322115 0.824972 -0.347197
v -0.433422 0.820268 -0.310512
v 0.313057 0.856545 -0.296346
v 0.424572 0.820117 -0.311945
v 0.313178 0.826777 -0.347145
v -0.447108 0.539912 -0.468690
v -0.318389 0.535755 -0.509792
v -0.332222 0.506018 -0.492400
v 0.443005 0.540953 -0.468827
v 0.328722 0.506795 -0.492400
v 0.314382 0.536564 -0.509844
v -0.453386 0.429101 -0.215142
v -0.577982 0.438466 -0.207005
v -0.451470 0.472205 -0.252863
v 0.455035 0.429101 -0.215142
v 0.449608 0.472215 -0.252789
v 0.577652 0.437530 -0.207157
v 0.577783 0.412424 0.921083
v 0.472630 0.475191 1.003200
v 0.459248 0.414347 0.962691
v -0.480273 0.483609 0.990494
v -0.577851 0.439241 0.924632
v -0.458318 0.436395 0.962691
v -0.355500 0.736968 1.022309
v -0.214465 0.719137 1.054994
v -0.230084 0.774154 1.027895
v 0.221748 0.772514 1.028630
v 0.206137 0.716751 1.054998
v 0.345877 0.743876 1.022312
v -0.416377 0.626267 1.030261
v -0.228347 0.627889 1.055125
v 0.409755 0.644736 1.031562
v 0.219513 0.631940 1.055125
v 0.416982 0.521845 1.022895
v 0.406819 0.488195 1.015196
v 0.208649 0.500603 1.037922
v 0.300844 0.445792 1.006814
v -0.390058 0.492030 1.016570
v -0.296296 0.453838 1.001357
v -0.191355 0.499392 1.038031
vn -0.3293 -0.9266 0.1815
vn -0.0947 -0.9908 0.0968
vn -0.3552 0.6061 0.7117
vn -0.1055 0.8492 0.5174
vn -0.1185 0.9743 0.1918
vn -0.4578 0.8410 0.2882
vn -0.3173 -0.9332 -0.1688
vn -0.0906 -0.9909 -0.1000
vn -0.1206 0.9927 -0.0083
vn -0.5262 0.8471 -0.0745
vn 0.2838 -0.9510 0.1230
vn 0.0833 -0.9931 0.0821
vn 0.1067 0.9838 0.1437
vn 0.0766 0.8432 0.5322
vn 0.3817 0.8047 0.4547
vn 0.3057 -0.9361 -0.1741
vn 0.0866 -0.9915 -0.0974
vn 0.5386 0.8392 -0.0755
vn 0.1220 0.9925 -0.0087
vn -0.8240 0.2498 0.5086
vn -0.4443 0.1075 0.8894
vn -0.1859 -0.3282 -0.9261
vn -0.8946 -0.0221 -0.4462
vn -0.1787 -0.9180 -0.3540
vn 0.1873 -0.3064 -0.9333
vn 0.1805 -0.9167 -0.3564
vn 0.8951 -0.0080 -0.4458
vn 0.3782 -0.0799 0.9223
vn 0.6772 0.0990 0.7291
vn -0.1091 0.9640 -0.2426
vn -0.1071 0.6763 -0.7288
vn -0.4250 0.7611 -0.4901
vn 0.1095 0.9641 -0.2418
vn 0.4291 0.7541 -0.4972
vn 0.1052 0.6799 -0.7257
vn -0.5380 -0.2964 -0.7891
vn -0.1131 -0.0008 -0.9936
vn -0.1252 -0.8378 -0.5314
vn 0.5383 -0.2877 -0.7921
vn 0.1269 -0.8371 -0.5321
vn 0.1126 0.0014 -0.9936
vn -0.0485 -0.8439 -0.5342
vn -0.3688 -0.7206 -0.5872
vn -0.0670 -0.3981 -0.9149
vn 0.0466 -0.8422 -0.5372
vn 0.1211 -0.3333 -0.9350
vn 0.3653 -0.7191 -0.5911
vn 0.3657 -0.8504 0.3783
vn 0.2626 -0.3572 0.8964
vn 0.0985 -0.8297 0.5494
vn -0.3133 -0.3732 0.8732
vn -0.4238 -0.7813 0.4581
vn -0.1218 -0.8246 0.5524
vn -0.2346 0.3697 0.8991
vn -0.0721 0.2185 0.9732
vn -0.0771 0.6093 0.7892
vn 0.0710 0.6075 0.7912
vn 0.0668 0.2123 0.9749
vn 0.2608 0.4102 0.8739
vn -0.2243 0.0148 0.9744
vn -0.0696 -0.0441 0.9966
vn 0.2855 0.1180 0.9511
vn 0.0648 -0.0340 0.9973
vn 0.2049 -0.1146 0.9721
vn 0.1524 -0.2821 0.9472
vn 0.0334 -0.3181 0.9475
vn 0.0341 -0.6570 0.7531
vn -0.1587 -0.3563 0.9208
vn -0.0569 -0.6985 0.7134
vn -0.0422 -0.3388 0.9399
vt 0.664037 0.807196
vt 0.664504 0.864383
vt 0.561145 0.865216
vt 0.560678 0.808029
vt 0.623586 0.775395
vt 0.648107 0.782178
vt 0.407812 0.776831
vt 0.417496 0.775185
vt 0.657059 0.344092
vt 0.623836 0.414634
vt 0.602177 0.395057
vt 0.610636 0.368919
vt 0.667029 0.797694
vt 0.667648 0.873300
vt 0.685625 0.865085
vt 0.685139 0.805614
vt 0.572471 0.799293
vt 0.554114 0.794940
vt 0.554789 0.877502
vt 0.573081 0.873837
vt 0.584698 0.418530
vt 0.433230 0.418205
vt 0.450460 0.402825
vt 0.567543 0.402285
vt 0.401133 0.821390
vt 0.412785 0.859786
vt 0.658882 0.863731
vt 0.651314 0.803822
vt 0.632031 0.325346
vt 0.631674 0.330245
vt 0.617824 0.337415
vt 0.616531 0.328566
vt 0.648107 0.782178
vt 0.651364 0.804053
vt 0.397060 0.805444
vt 0.407812 0.776831
vt 0.390578 0.364351
vt 0.385225 0.327456
vt 0.409762 0.329698
vt 0.402185 0.364444
vt 0.391316 0.315242
vt 0.629087 0.309529
vt 0.588106 0.318107
vt 0.433212 0.319194
vt 0.664159 0.875991
vt 0.664159 0.875991
vt 0.663501 0.794948
vt 0.663490 0.794913
vt 0.651417 0.803916
vt 0.658882 0.863731
vt 0.670164 0.863726
vt 0.703805 0.803980
vt 0.407057 0.782542
vt 0.651318 0.803845
vt 0.648074 0.782377
vt 0.642743 0.872395
vt 0.642132 0.797725
vt 0.572471 0.799293
vt 0.664504 0.864383
vt 0.664037 0.807196
vt 0.667509 0.807167
vt 0.667977 0.864354
vt 0.651360 0.804031
vt 0.658882 0.863683
vt 0.404944 0.859387
vt 0.397002 0.804884
vt 0.401604 0.402582
vt 0.414037 0.393392
vt 0.564149 0.331880
vt 0.566964 0.365914
vt 0.450909 0.364865
vt 0.460495 0.331568
vt 0.687181 0.863828
vt 0.672551 0.864282
vt 0.672081 0.807119
vt 0.686717 0.806891
vt 0.658883 0.863684
vt 0.651458 0.804137
vt 0.703834 0.804202
vt 0.670471 0.863698
vt 0.566964 0.365914
vt 0.563498 0.387892
vt 0.454506 0.388510
vt 0.642743 0.872395
vt 0.660766 0.876191
vt 0.660098 0.794452
vt 0.642132 0.797725
vt 0.558150 0.874350
vt 0.558057 0.862978
vt 0.560803 0.875240
vt 0.557627 0.810385
vt 0.557526 0.798033
vt 0.664662 0.883686
vt 0.664577 0.873325
vt 0.663959 0.797719
vt 0.663874 0.787287
vt 0.671047 0.864329
vt 0.672009 0.874322
vt 0.670579 0.807142
vt 0.671508 0.797133
vt 0.683576 0.875405
vt 0.687179 0.863797
vt 0.682933 0.795313
vt 0.686718 0.806860
vt 0.660411 0.886666
vt 0.663718 0.875995
vt 0.663055 0.794916
vt 0.659556 0.784012
vt 0.557614 0.785137
vt 0.554116 0.795136
vt 0.554814 0.880546
vt 0.557960 0.887622
vt 0.573168 0.884491
vt 0.642829 0.882984
vt 0.394895 0.417432
vt 0.371386 0.365900
vt 0.664586 0.874403
vt 0.649643 0.884411
vt 0.649234 0.785881
vt 0.642046 0.787183
vt 0.572384 0.788690
vt 0.663955 0.797176
vt 0.561696 0.786119
vt 0.370102 0.361820
vt 0.360343 0.315987
vt 0.686207 0.873881
vt 0.671509 0.797106
vt 0.685592 0.796887
vt 0.669334 0.874364
vt 0.664671 0.884812
vt 0.683612 0.876157
vt 0.682959 0.794583
vt 0.663865 0.786232
vt 0.668831 0.797136
vt 0.663811 0.887379
vt 0.662961 0.783395
vt 0.392797 0.795528
vt 0.394034 0.791730
vt 0.567166 0.885727
vt 0.428940 0.775613
vt 0.407057 0.782542
vt 0.648074 0.782377
vt 0.622582 0.775312
s 1
usemtl Material
f 43/32/43 33/33/33 29/34/29 37/35/37
f 40/36/40 71/37/71 72/38/72 35/39/35
f 53/40/53 39/41/39 83/42/83 86/43/86
f 50/44/50 48/45/48 62/46/62 64/47/64
f 36/48/36 74/49/74 77/50/77 26/51/26
f 38/52/38 28/53/28 80/54/80 81/55/81
f 44/56/44 30/57/30 34/58/34 47/59/47
f 73/60/73 52/61/52 88/62/88 89/63/89
f 71/64/71 51/65/51 53/66/53 72/67/72
f 45/68/45 75/69/75 92/70/92 84/71/84
f 77/72/77 74/73/74 91/74/91 93/75/93
f 68/76/68 46/77/46 49/78/49 70/79/70
f 47/80/47 34/81/34 56/82/56 60/83/60
f 76/84/76 44/56/44 47/85/47 67/86/67
f 32/87/32 41/88/41 36/89/36 26/51/26
f 33/90/33 43/91/43 57/92/57 54/93/54
f 51/94/51 42/95/42 39/96/39 53/97/53
f 27/98/27 45/68/45 84/71/84 78/99/78
f 90/100/90 87/101/87 85/102/85 94/103/94
f 61/104/61 55/105/55 59/106/59 65/107/65
f 42/108/42 51/109/51 63/110/63 58/111/58
f 87/112/87 82/113/82 79/114/79 85/102/85
f 32/115/32 66/116/66 69/117/69 41/118/41
f 27/119/27 28/120/28 29/34/29 30/121/30
f 37/35/37 38/122/38 39/123/39
f 46/77/46 47/124/47 48/125/48
f 49/78/49 50/126/50 51/127/51
f 54/128/54 55/105/55 56/129/56
f 57/130/57 58/131/58 59/106/59
f 60/132/60 61/133/61 62/46/62
f 63/134/63 64/47/64 65/135/65
f 66/116/66 67/136/67 68/137/68
f 69/117/69 70/138/70 71/139/71
f 72/140/72 73/141/73 74/49/74
f 75/142/75 76/143/76 77/50/77
f 78/99/78 79/114/79 80/54/80
f 81/55/81 82/113/82 83/42/83
f 86/43/86 87/101/87 88/62/88
f 89/63/89 90/100/90 91/74/91
f 92/70/92 93/75/93 94/103/94
f 32/87/32 26/51/26 25/144/25 31/145/31
f 45/68/45 27/98/27 30/146/30 44/147/44
f 29/34/29 33/33/33 34/148/34 30/121/30
f 66/116/66 32/115/32 31/149/31 67/136/67
f 71/139/71 40/150/40 41/118/41 69/117/69
f 36/89/36 41/88/41 40/151/40 35/152/35
f 43/32/43 37/35/37 39/123/39 42/153/42
f 74/49/74 36/48/36 35/154/35 72/140/72
f 37/35/37 29/34/29 28/120/28 38/122/38
f 75/69/75 45/68/45 44/155/44 76/156/76
f 48/45/48 50/44/50 49/78/49 46/77/46
f 54/93/54 57/92/57 59/106/59 55/105/55
f 55/105/55 61/104/61 60/157/60 56/129/56
f 58/158/58 63/159/63 65/107/65 59/106/59
f 61/104/61 65/107/65 64/47/64 62/46/62
f 33/90/33 54/93/54 56/160/56 34/148/34
f 62/46/62 48/45/48 47/161/47 60/162/60
f 63/163/63 51/164/51 50/44/50 64/47/64
f 42/153/42 58/165/58 57/92/57 43/91/43
f 46/77/46 68/76/68 67/166/67 47/161/47
f 51/164/51 71/167/71 70/79/70 49/78/49
f 52/168/52 73/169/73 72/67/72 53/66/53
f 26/51/26 77/50/77 76/143/76 25/170/25
f 68/76/68 70/79/70 69/117/69 66/116/66
f 85/102/85 79/114/79 78/99/78 84/71/84
f 81/55/81 80/54/80 79/114/79 82/113/82
f 94/103/94 85/102/85 84/71/84 92/70/92
f 82/113/82 87/112/87 86/43/86 83/42/83
f 87/101/87 90/100/90 89/63/89 88/62/88
f 90/100/90 94/103/94 93/75/93 91/74/91
f 80/54/80 28/53/28 27/98/27 78/99/78
f 77/72/77 93/75/93 92/70/92 75/69/75
f 53/40/53 86/43/86 88/62/88 52/61/52
f 91/74/91 74/73/74 73/60/73 89/63/89
f 38/52/38 81/55/81 83/42/83 39/41/39
f 25/171/25 76/172/76 67/173/67 31/174/31
o Cylinder.003
v 0.002021 0.725233 1.134861
v 0.062629 0.700268 1.134861
v 0.058990 0.703907 1.048450
v 0.083955 0.643299 1.048450
v 0.083955 0.639118 1.134861
v 0.058990 0.578510 1.134861
v 0.062629 0.582148 1.048450
v 0.002021 0.557183 1.048450
v -0.002160 0.557183 1.134861
v -0.062768 0.582148 1.134861
v -0.059130 0.578510 1.048450
v -0.084095 0.639118 1.048450
v -0.084095 0.643299 1.134861
v -0.059130 0.703907 1.134861
v -0.062768 0.700268 1.048450
v -0.002160 0.725233 1.048450
vn 0.9347 0.3554 -0.0036
vn 0.3554 0.9347 0.0036
vn 0.9347 -0.3554 0.0036
vn 0.3554 -0.9347 -0.0036
vn -0.3554 -0.9347 0.0036
vn -0.9347 -0.3554 -0.0036
vn -0.9347 0.3554 0.0036
vn -0.3554 0.9347 -0.0036
vn -0.0000 -0.0000 1.0000
vn -0.0000 -0.0000 -1.0000
vt 0.538070 0.358825
vt 0.538070 0.376211
vt 0.513282 0.375167
vt 0.513282 0.357625
vt 0.538070 0.382329
vt 0.513282 0.382329
vt 0.538070 0.341283
vt 0.513282 0.340239
vt 0.538070 0.334121
vt 0.513282 0.334121
vt 0.538070 0.340239
vt 0.513282 0.341283
vt 0.538070 0.357625
vt 0.513282 0.358825
vt 0.538070 0.375167
vt 0.513282 0.376211
s 0
usemtl Material
f 98/175/95 97/176/95 96/177/95 99/178/95
f 97/176/96 110/179/96 95/180/96 96/177/96
f 101/181/97 98/175/97 99/178/97 100/182/97
f 102/183/98 101/181/98 100/182/98 103/184/98
f 105/185/99 102/183/99 103/184/99 104/186/99
f 106/187/100 105/185/100 104/186/100 107/188/100
f 109/189/101 106/187/101 107/188/101 108/190/101
f 110/179/102 109/189/102 108/190/102 95/180/102
f 104/186/103 103/184/103 100/182/103 99/178/103 96/177/103 95/180/103 108/190/103 107/188/103
f 102/183/104 105/185/104 106/187/104 109/189/104 110/179/104 97/176/104 98/175/104 101/181/104
o Cylinder.004
v -0.234683 0.906725 0.660860
v -0.204987 0.677494 0.645154
v -0.201305 0.906709 0.638462
v -0.191345 0.906681 0.600017
v -0.191909 0.677467 0.607655
v -0.217589 0.906654 0.563529
v -0.204106 0.677443 0.574761
v -0.247555 0.906650 0.557791
v -0.245013 0.677429 0.556140
v -0.284627 0.677444 0.577030
v -0.279653 0.906659 0.570321
v -0.294962 0.906686 0.607488
v -0.294414 0.677465 0.604817
v -0.281884 0.906714 0.644987
v -0.288676 0.677486 0.634783
v -0.252188 0.677506 0.661027
vn 0.5571 0.0153 0.8303
vn 0.9569 0.0002 0.2903
vn 0.8117 0.0191 -0.5838
vn 0.1881 0.0092 -0.9821
vn -0.3636 0.0027 -0.9315
vn -0.9441 0.0133 0.3293
vn -0.0000 -1.0000 0.0007
vn -0.3186 0.0250 0.9475
vn 0.3186 -0.0236 0.9476
vn -0.9328 0.0058 -0.3604
vn 0.9375 -0.0139 -0.3476
vn 0.4142 -0.0202 -0.9099
vn -0.4664 -0.0158 -0.8844
vn -0.9821 -0.0045 0.1881
vn -0.5838 -0.0188 0.8117
vn -0.0000 1.0000 -0.0007
vt 0.390808 0.256399
vt 0.392381 0.257780
vt 0.382864 0.252241
vt 0.394445 0.268389
vt 0.395010 0.266402
vt 0.391340 0.275407
vt 0.387662 0.278473
vt 0.380181 0.280109
vt 0.379411 0.280587
vt 0.370968 0.276347
vt 0.368200 0.258964
vt 0.370351 0.256447
vt 0.366149 0.266450
vt 0.487893 0.256948
vt 0.491564 0.247943
vt 0.487361 0.237941
vt 0.474849 0.233734
vt 0.464754 0.240505
vt 0.462640 0.248756
vt 0.465853 0.256314
vt 0.476734 0.261651
vt 0.378295 0.252193
vt 0.369300 0.274773
vt 0.366086 0.267215
s 0
usemtl Material
f 112/191/105 113/192/105 111/193/105
f 114/194/106 113/192/106 112/191/106 115/195/106
f 117/196/107 116/197/107 114/194/107
f 119/198/108 118/199/108 116/197/108
f 119/198/109 121/200/109 118/199/109
f 125/201/110 124/202/110 122/203/110
f 117/204/111 115/205/111 112/206/111 126/207/111 125/208/111 123/209/111 120/210/111 119/211/111
f 126/212/112 111/193/112 124/202/112
f 126/212/113 112/191/113 111/193/113
f 122/203/114 121/200/114 120/213/114 123/214/114
f 115/195/115 117/196/115 114/194/115
f 117/196/116 119/198/116 116/197/116
f 119/198/117 120/213/117 121/200/117
f 123/214/118 125/201/118 122/203/118
f 125/201/119 126/212/119 124/202/119
f 116/197/120 118/199/120 121/200/120 122/203/120 124/202/120 111/193/120 113/192/120 114/194/120
o Cylinder.005
v 0.154562 0.945714 0.308292
v 0.274948 0.016426 0.244622
v 0.289874 0.945648 0.217494
v 0.330250 0.945534 0.061639
v 0.327965 0.016315 0.092601
v 0.223857 0.945427 -0.086281
v 0.278517 0.016218 -0.040746
v 0.102378 0.945410 -0.109541
v 0.112683 0.016163 -0.116237
v -0.047909 0.016225 -0.031546
v -0.027744 0.945447 -0.058746
v -0.089807 0.945556 0.091925
v -0.087584 0.016307 0.081098
v -0.036790 0.945667 0.243945
v -0.064324 0.016395 0.202577
v 0.083596 0.016473 0.308969
vn 0.0401 0.9541 0.2969
vn 0.2140 -0.9545 0.2078
vn 0.2352 0.9565 0.1727
vn 0.2923 0.9551 -0.0489
vn 0.2899 -0.9570 -0.0076
vn 0.1568 0.9563 -0.2467
vn 0.2148 -0.9562 -0.1990
vn -0.0257 0.9597 -0.2797
vn -0.0088 -0.9541 -0.2995
vn -0.2194 -0.9562 -0.1938
vn -0.2082 0.9556 -0.2084
vn -0.2911 0.9567 -0.0058
vn -0.2764 -0.9607 -0.0243
vn -0.2112 0.9541 0.2125
vn -0.2462 -0.9564 0.1575
vn -0.0451 -0.9531 0.2992
vt 0.567285 0.719513
vt 0.570620 0.878250
vt 0.557247 0.878260
vt 0.596230 0.878231
vt 0.591432 0.719495
vt 0.613170 0.719480
vt 0.620573 0.878214
vt 0.624523 0.719471
vt 0.625676 0.878210
vt 0.615441 0.878217
vt 0.573477 0.719508
vt 0.567401 0.878252
vt 0.591547 0.878235
vt 0.557131 0.719520
vt 0.593395 0.719494
vt 0.611640 0.719481
vt 0.400440 0.222911
vt 0.387402 0.226251
vt 0.374060 0.219551
vt 0.366446 0.203911
vt 0.373086 0.188105
vt 0.392859 0.181458
vt 0.407897 0.190212
vt 0.411160 0.206976
s 1
usemtl Material
f 128/215/122 129/216/123 127/217/121
f 130/218/124 129/216/123 128/215/122 131/219/125
f 133/220/127 132/221/126 130/218/124
f 135/222/129 134/223/128 132/221/126
f 135/222/129 137/224/131 134/223/128
f 141/225/135 140/226/134 138/227/132
f 133/220/127 131/219/125 128/215/122 142/228/136 141/225/135 139/229/133 136/230/130 135/222/129
f 142/228/136 127/217/121 140/226/134
f 142/228/136 128/215/122 127/217/121
f 138/227/132 137/224/131 136/230/130 139/229/133
f 131/219/125 133/220/127 130/218/124
f 133/220/127 135/222/129 132/221/126
f 135/222/129 136/230/130 137/224/131
f 139/229/133 141/225/135 138/227/132
f 141/225/135 142/228/136 140/226/134
f 132/231/126 134/232/128 137/233/131 138/234/132 140/235/134 127/236/121 129/237/123 130/238/124
